# xmcd CD database file
#
# Track frame offsets:
#	150
#	18527
#	36519
#	52002
#	73212
#	92785
#	125011
#	152416
#
# Disc length: 2356 seconds
#
# Revision: 0
# Processed by: cddbd v1.5.2PL0 Copyright (c) Steve Scherf et al.
# Submitted via: NeoAudio 9.9.9
#
DISCID=70093208
DTITLE=Sonny Stitt - sits in with the Oscar Peterson Trio
DYEAR=2007
DGENRE=Jazz
TTITLE0=I can't give you anything but love
TTITLE1=Au privave
TTITLE2=The gypsy
TTITLE3=I'll remember april
TTITLE4=Scrapple from the apple
TTITLE5=Moten swing
TTITLE6=Blues for Prez, Sweets, Ben and all other funky ones
TTITLE7=Easy does it
EXTD=YEAR: 2007
EXTT0=
EXTT1=
EXTT2=
EXTT3=
EXTT4=
EXTT5=
EXTT6=
EXTT7=
PLAYORDER=
